# xmcd CD database file
#
# Track frame offsets:
#	150
#	30337
#	66607
#	87950
#	113150
#	133740
#	146500
#	177677
#	202862
#	232412
#	243725
#	253235
#	272302
#	296282
#	319002
#
# Disc length: 4665 seconds
#
# Revision: 1
# Processed by: cddbd v1.5.1PL0 Copyright (c) Steve Scherf et al.
# Submitted via: CDex 1.51
#
DISCID=e512370f
DTITLE=Jan Garbarek - Officium
DYEAR=1993
DGENRE=Jazz
TTITLE0=Parce mihi domini
TTITLE1=Primo tempore
TTITLE2=Sanctus
TTITLE3=Regnantem sempiterna
TTITLE4=o salutaris hostia
TTITLE5=Procedentem sponsum
TTITLE6=Pulcherrima rosa
TTITLE7=Parce mihi domini
TTITLE8=Beate viscera
TTITLE9=De spineto nata rosa
TTITLE10=Credo
TTITLE11=Ave maris stella
TTITLE12=Virgo flagellatur
TTITLE13=Oratio Ieremiae
TTITLE14=Parce mihi domine
EXTD=YEAR: 1993
EXTT0=
EXTT1=
EXTT2=
EXTT3=
EXTT4=
EXTT5=
EXTT6=
EXTT7=
EXTT8=
EXTT9=
EXTT10=
EXTT11=
EXTT12=
EXTT13=
EXTT14=
PLAYORDER=
